<svg xmlns="http://www.w3.org/2000/svg" fill="none" viewBox="-0.5 -0.5 16 16" id="Clock-Circle--Streamline-Solar" height="16" width="16">
  <desc>Clock Circle Streamline Icon: https://streamlinehq.com</desc>
  <g id="Bold Duotone/Time/Clock Circle">
    <path id="Vector" fill="#b8952e" d="M7.5 14.850000000000001C11.55925 14.850000000000001 14.850000000000001 11.55925 14.850000000000001 7.5C14.850000000000001 3.4406874999999997 11.55925 0.15 7.5 0.15C3.4406874999999997 0.15 0.15 3.4406874999999997 0.15 7.5C0.15 11.55925 3.4406874999999997 14.850000000000001 7.5 14.850000000000001Z" stroke-width="1"></path>
    <path id="Vector_2" fill="#b8952e" fill-rule="evenodd" d="M7.5 4.00875C7.8044375 4.00875 8.05125 4.2555625 8.05125 4.5600000000000005V7.271625L9.72725 8.94775C9.9425625 9.163 9.9425625 9.512 9.72725 9.72725C9.512 9.9425625 9.163 9.9425625 8.94775 9.72725L7.110250000000001 7.889749999999999C7.0068125000000006 7.7864375 6.94875 7.6461875 6.94875 7.5V4.5600000000000005C6.94875 4.2555625 7.1955625 4.00875 7.5 4.00875Z" clip-rule="evenodd" stroke-width="1"></path>
  </g>
</svg>
