<svg xmlns="http://www.w3.org/2000/svg" fill="none" viewBox="-0.5 -0.5 16 16" id="Phone--Streamline-Solar" height="16" width="16">
  <desc>Phone Streamline Icon: https://streamlinehq.com</desc>
  <g id="Bold Duotone/Call/Phone">
    <path id="Vector" fill="#b8952e" d="M6.7345 8.314625C4.3288125 5.922625 5.199937500000001 5.0415 5.205375 5.0360625L1.9069375 8.3345C2.451 9.154625 3.1598749999999995 10.034749999999999 4.0821875 10.952C5.013 11.877437500000001 5.9283125000000005 12.564375000000002 6.795187499999999 13.0718125L10.031875 9.835125S9.14775 10.71425 6.7345 8.314625Z" stroke-width="1"></path>
    <path id="Vector_2" fill="#b8952e" fill-rule="evenodd" d="M10.032250000000001 9.834875L10.40425 9.4650625C10.918375000000001 8.95375 11.719875 8.848749999999999 12.37775 9.206375L13.937999999999999 10.0545625C14.94 10.5991875 15.1608125 11.9340625 14.3776875 12.712812499999998L13.2175625 13.86625C12.922562500000002 14.1595625 12.556562499999998 14.3739375 12.135625000000001 14.4131875C11.162 14.504 9.158875 14.455 6.7955625 13.0715625L10.032250000000001 9.834875ZM5.20575 5.03575L5.439937500000001 4.802875C6.017 4.229125 6.071375 3.308 5.567937499999999 2.6355L4.538125 1.2599375C3.9150625 0.42762500000000003 2.7110000000000003 0.3176875 1.996875 1.0278125L0.715 2.302375C0.360875 2.6544375 0.12356249999999999 3.110875 0.15237499999999998 3.6172500000000003C0.2051875 4.547312499999999 0.52225 6.2463125 1.9072500000000001 8.334249999999999L5.20575 5.03575Z" clip-rule="evenodd" stroke-width="1"></path>
  </g>
</svg>
